HIERARCHY
ROOT Hips
{
  OFFSET 0 0 0
  CHANNELS 6 Xposition Yposition Zposition Zrotation Yrotation Xrotation
  JOINT LeftThigh
  {
    OFFSET 8.409438 0 -5.917753
    CHANNELS 3 Zrotation Yrotation Xrotation
    JOINT LeftLeg
    {
      OFFSET 0 0 -42.358652
      CHANNELS 3 Zrotation Yrotation Xrotation
      JOINT LeftFoot
      {
        OFFSET 0 0 -39.357303
        CHANNELS 3 Zrotation Yrotation Xrotation
      }
    }
  }
  JOINT RightThigh
  {
    OFFSET -8.409438 0 -5.917753
    CHANNELS 3 Zrotation Yrotation Xrotation
    JOINT RightLeg
    {
      OFFSET 0 0 -42.358652
      CHANNELS 3 Zrotation Yrotation Xrotation
      JOINT RightFoot
      {
        OFFSET 0 0 -39.357303
        CHANNELS 3 Zrotation Yrotation Xrotation
      }
    }
  }
  JOINT SpineLow
  {
    OFFSET 0 0 4.719101
    CHANNELS 3 Zrotation Yrotation Xrotation
    JOINT SpineMid
    {
      OFFSET 0 0 12.899191
      CHANNELS 3 Zrotation Yrotation Xrotation
      JOINT Chest
      {
        OFFSET 0 0 12.899191
        CHANNELS 3 Zrotation Yrotation Xrotation
        JOINT LeftShoulder
        {
          OFFSET 7.550562 1.41573 9.438202
          CHANNELS 3 Zrotation Yrotation Xrotation
          JOINT LeftArm
          {
            OFFSET 9.155056 0 4.247191
            CHANNELS 3 Zrotation Yrotation Xrotation
            JOINT LeftForearm
            {
              OFFSET 0 0 25.771955
              CHANNELS 3 Zrotation Yrotation Xrotation
              JOINT LeftHand
              {
                OFFSET 0 0 25.197169
                CHANNELS 3 Zrotation Yrotation Xrotation
              }
            }
          }
        }
        JOINT RightShoulder
        {
          OFFSET -7.550562 1.41573 9.438202
          CHANNELS 3 Zrotation Yrotation Xrotation
          JOINT RightArm
          {
            OFFSET -9.155056 0 4.247191
            CHANNELS 3 Zrotation Yrotation Xrotation
            JOINT RightForearm
            {
              OFFSET 0 0 -25.771955
              CHANNELS 3 Zrotation Yrotation Xrotation
              JOINT RightHand
              {
                OFFSET 0 0 -25.197169
                CHANNELS 3 Zrotation Yrotation Xrotation
              }
            }
          }
        }
        JOINT Neck
        {
          OFFSET 0 0 15.101124
          CHANNELS 3 Zrotation Yrotation Xrotation
          JOINT Head
          {
            OFFSET 0 0 11.325843
            CHANNELS 3 Zrotation Yrotation Xrotation
            End Site
            {
              OFFSET 0 0 14.157303
            }
          }
        }
      }
    }
  }
}
MOTION
Frames: 16
Frame Time: 0.0
0.0  89.887642  0.0  2.527901  -20.968374  -96.432798  13.364301  -19.360763  -8.6561  -5.161017  21.484275  34.283247  3.639626  2.944917  1.788804  -24.234634  13.856532  -27.59446  -4.080899  7.904687  37.457089  10.644284  3.613543  -0.770192  0.779781  0.077875  1.406047  2.135156  0.167436  3.845349  2.135156  0.167436  3.845349  -21.281668  24.229664  -0.551866  161.200717  61.519961  -158.985076  -0.392436  -1.333902  13.460609  95.723439  -0.918255  -11.87657  -20.092602  -0.170081  18.230587  52.494596  13.115581  46.098178  28.195924  -31.772162  -110.150149  65.72269  -0.347725  -23.354957  -6.988514  0.286965  -2.376411  -5.240353  0.242442  -1.779299  
0.0  89.887642  0.0  2.443272  -20.846237  -96.298929  13.195117  -19.366239  -8.870972  -5.261014  21.508181  34.372352  3.634601  2.960024  1.847175  -25.20648  13.448344  -27.918581  -3.312159  7.746216  37.528036  10.576085  3.623827  -0.731813  0.777746  0.077505  1.40536  2.129572  0.166564  3.843454  2.129572  0.166564  3.843454  -21.174756  24.283141  -0.607895  161.424487  61.694732  -158.646231  -0.379232  -1.274747  13.378725  95.966144  -1.075209  -11.731338  -20.194664  -0.219604  18.182906  52.387707  13.134204  46.063719  28.487829  -31.956959  -110.367006  65.76257  -0.259813  -23.066593  -7.101764  0.115595  -2.464222  -5.325958  0.115354  -1.847119  
0.0  89.887642  0.0  2.416671  -20.848952  -96.326575  13.127053  -19.380738  -8.918986  -5.393892  21.528999  34.452747  3.661376  2.98972  1.910385  -25.770323  13.250982  -28.055009  -2.819198  7.668822  37.528768  10.627852  3.620839  -0.689939  0.78348  0.080988  1.422144  2.14548  0.175203  3.889453  2.14548  0.175203  3.889453  -21.159471  24.284534  -0.679384  161.448343  61.808246  -158.601455  -0.324089  -1.23723  13.446095  96.080105  -1.025236  -11.590949  -20.243851  -0.273856  18.154594  52.353365  13.137032  46.065322  28.598044  -32.025947  -110.404392  65.859573  -0.193402  -22.850168  -7.10582  0.022404  -2.511348  -5.32938  0.046013  -1.883552  
0.0  89.887642  0.0  2.381356  -20.893684  -96.448467  13.133037  -19.455606  -8.832754  -5.308473  21.528657  34.673858  3.542617  2.908797  1.919983  -26.247868  13.074521  -28.06895  -2.597212  7.64104  37.497349  10.939636  3.741376  -0.657161  0.805912  0.0797  1.457937  2.206767  0.169166  3.987279  2.206767  0.169166  3.987279  -21.087456  24.323381  -0.702497  161.055321  61.88291  -158.809657  -0.539555  -1.203355  13.238987  96.452879  -1.217548  -11.468833  -20.153323  -0.287352  18.185377  52.223765  13.161144  45.971126  28.664672  -32.070754  -110.477604  65.966926  -0.251178  -22.664323  -7.182966  -0.056302  -2.558124  -5.387572  -0.01216  -1.919569  
0.0  89.887642  0.0  2.331005  -20.887897  -96.527213  13.06084  -19.502376  -8.802583  -5.342903  21.494226  34.772099  3.53332  2.911741  1.998537  -26.346905  12.978952  -27.942352  -2.43829  7.639182  37.410019  10.969317  3.744897  -0.627419  0.816137  0.072919  1.482519  2.234336  0.149195  4.054255  2.234336  0.149195  4.054254  -21.087189  24.341629  -0.727317  160.583855  61.883176  -159.119943  -0.548867  -1.188672  13.223455  96.500592  -1.161203  -11.416575  -20.207028  -0.313094  18.165876  52.252259  13.167917  45.961992  28.653752  -32.035854  -110.427455  66.054007  -0.44064  -22.588757  -7.203549  -0.054031  -2.56676  -5.403001  -0.010269  -1.926024  
0.0  89.887642  0.0  2.29478  -20.888085  -96.608111  13.135202  -19.585549  -8.714762  -5.256242  21.458467  34.958724  3.34928  2.851622  2.002257  -26.566905  12.851419  -27.903053  -2.257069  7.627648  37.386993  11.135204  3.845112  -0.612583  0.82129  0.067262  1.504704  2.248103  0.132669  4.114702  2.248103  0.132669  4.114702  -20.835919  24.406199  -0.663045  160.509413  61.743685  -159.138482  -0.516966  -1.216138  13.152096  96.787609  -1.371132  -11.345481  -20.002605  -0.291454  18.247939  52.158141  13.201888  45.838544  28.623372  -32.013486  -110.438241  66.174308  -0.707838  -22.53155  -7.204673  -0.03807  -2.541115  -5.403774  0.001407  -1.906599  
0.0  89.887642  0.0  2.183455  -20.876773  -96.640798  13.203908  -19.729054  -8.716548  -5.403239  21.472451  34.975  3.309477  2.848554  2.085125  -26.295042  12.810417  -27.721011  -2.366683  7.654098  37.351014  11.105046  3.872363  -0.594027  0.820173  0.049066  1.521816  2.243928  0.082449  4.160847  2.243928  0.082449  4.160847  -20.754235  24.411064  -0.699246  160.243027  61.651186  -159.303511  -0.499033  -1.189335  13.10348  96.87642  -1.378497  -11.300888  -19.993449  -0.275257  18.237358  52.263453  13.223884  45.806957  28.56585  -31.939735  -110.377456  66.335804  -0.954175  -22.494718  -7.182243  0.034494  -2.507758  -5.386649  0.055354  -1.880721  
0.0  89.887642  0.0  2.138174  -20.861498  -96.718777  13.365823  -19.849555  -8.643106  -5.511154  21.512476  35.017927  3.154094  2.789259  2.094959  -25.950439  12.817113  -27.499831  -2.3245  7.672628  37.325478  11.03277  3.88498  -0.598824  0.812912  0.040311  1.539571  2.223546  0.058392  4.209072  2.223546  0.058392  4.209072  -20.508889  24.416315  -0.718875  160.306872  61.462984  -159.309198  -0.353328  -1.129533  13.147295  96.652164  -1.231383  -11.182617  -19.773911  -0.241056  18.310685  52.271613  13.27701  45.696877  28.454445  -31.926742  -110.453822  66.547067  -1.228655  -22.466032  -7.034862  0.144216  -2.386501  -5.275676  0.135658  -1.788495  
0.0  89.887642  0.0  2.086743  -20.780083  -96.711043  13.446241  -19.908099  -8.678663  -5.690195  21.516847  34.970151  3.093696  2.783744  2.177855  -25.547442  12.839256  -27.304539  -2.560606  7.740621  37.234959  10.955382  3.894177  -0.577243  0.799487  0.033759  1.544301  2.186447  0.041191  4.221778  2.186448  0.041191  4.221779  -20.3719  24.390173  -0.762525  160.282284  61.319715  -159.313201  -0.241862  -1.044147  13.161785  96.773059  -1.277232  -11.237998  -19.766999  -0.243732  18.26109  52.369144  13.333451  45.65355  28.423088  -31.871062  -110.421146  66.756469  -1.410002  -22.451555  -7.008991  0.237224  -2.315618  -5.255926  0.204512  -1.734261  
0.0  89.887642  0.0  2.013425  -20.678125  -96.669267  13.606038  -20.003831  -8.717105  -5.754943  21.541402  34.998519  2.854553  2.677995  2.147597  -25.005892  12.890495  -27.060923  -2.708572  7.753934  37.157739  10.775636  3.879508  -0.575074  0.766989  0.024409  1.537466  2.097064  0.017941  4.202797  2.097064  0.017941  4.202797  -20.114639  24.360906  -0.759977  160.561709  61.086577  -159.137051  -0.124206  -1.014186  13.163344  96.721414  -1.261174  -11.227025  -19.594282  -0.253509  18.299128  52.371108  13.449308  45.53233  28.37619  -31.940634  -110.652074  67.069306  -1.769535  -22.361346  -6.906614  0.343585  -2.221562  -5.178778  0.282843  -1.662535  
0.0  89.887642  0.0  1.942495  -20.520679  -96.605591  13.649189  -20.070252  -8.809444  -5.928105  21.558736  34.913618  2.821156  2.674771  2.201974  -24.727094  12.903835  -26.914254  -2.946927  7.794006  37.057356  10.672847  3.87017  -0.555577  0.745481  0.01717  1.528668  2.037846  -1.98E-4  4.178534  2.037846  -1.98E-4  4.178533  -19.992444  24.343637  -0.779186  160.671349  60.898532  -159.047147  -0.04733  -0.993736  13.1761  96.750302  -1.344327  -11.304655  -19.654703  -0.302722  18.194017  52.43329  13.536242  45.51461  28.457788  -31.956724  -110.647265  67.34705  -1.82761  -22.363231  -6.899491  0.417901  -2.172867  -5.173188  0.338013  -1.62517  
0.0  89.887642  0.0  1.835399  -20.234304  -96.530901  13.608771  -20.177724  -8.876018  -6.022243  21.582667  34.861402  2.720192  2.624971  2.213659  -24.466189  12.942645  -26.669996  -3.088101  7.798654  36.940241  10.588355  3.874598  -0.55883  0.703091  0.002742  1.516419  1.921132  -0.036579  4.144658  1.921132  -0.036579  4.144658  -19.863717  24.349321  -0.752469  160.796564  60.727709  -158.887514  -0.031181  -1.000848  13.171403  96.760071  -1.405237  -11.345267  -19.747682  -0.358068  18.067117  52.420688  13.61366  45.448375  28.588844  -32.049398  -110.787689  67.669101  -1.967409  -22.328419  -6.887731  0.48467  -2.132114  -5.164151  0.387597  -1.593853  
0.0  89.887642  0.0  1.754382  -19.923877  -96.471782  13.447246  -20.248507  -8.952096  -6.081086  21.561959  34.787386  2.679983  2.621247  2.266027  -24.478549  12.958272  -26.478889  -3.307735  7.833822  36.748881  10.527231  3.850429  -0.552428  0.663373  -0.005916  1.501965  1.812094  -0.057346  4.104954  1.812094  -0.057346  4.104954  -19.759357  24.372327  -0.68931  160.928783  60.576605  -158.776741  -0.045098  -0.996367  13.182961  96.818359  -1.498816  -11.375575  -19.828827  -0.382101  17.947958  52.44722  13.677439  45.424563  28.73379  -32.146189  -110.803667  67.87942  -1.984639  -22.315006  -6.932376  0.51554  -2.111488  -5.19754  0.410676  -1.577998  
0.0  89.887642  0.0  1.625768  -19.489041  -96.361224  13.225544  -20.372368  -9.026688  -6.034914  21.570459  34.761267  2.536117  2.546824  2.245408  -24.447441  12.957  -26.208667  -3.460402  7.855643  36.541925  10.309114  3.750816  -0.574488  0.612151  -0.025499  1.483743  1.670966  -0.107207  4.054722  1.670966  -0.107207  4.054722  -19.66174  24.418924  -0.593548  161.131515  60.429709  -158.593449  0.023659  -0.989392  13.297199  96.824726  -1.526678  -11.358651  -20.000465  -0.400179  17.791166  52.302214  13.738351  45.273962  28.997606  -32.205275  -110.743016  68.081862  -2.077411  -22.228031  -6.985388  0.553332  -2.104699  -5.237169  0.439131  -1.57243  
0.0  89.887642  0.0  1.519009  -19.167194  -96.29829  12.987547  -20.472762  -9.082917  -6.03627  21.527679  34.660306  2.499507  2.548857  2.280007  -24.689224  12.891558  -26.031154  -3.480311  7.83966  36.301821  10.272706  3.718374  -0.553722  0.580832  -0.037198  1.473667  1.584706  -0.137007  4.026966  1.584706  -0.137007  4.026966  -19.617671  24.405532  -0.542288  161.247495  60.280635  -158.511156  0.021067  -0.99782  13.382224  96.817947  -1.584356  -11.280628  -20.065984  -0.413772  17.672729  52.289169  13.797619  45.208635  29.219037  -32.365999  -110.765504  68.264885  -2.124388  -22.133632  -7.069039  0.552321  -2.134602  -5.299886  0.439009  -1.594803  
0.0  89.887642  0.0  1.403952  -18.792161  -96.186468  12.843673  -20.56382  -9.117245  -6.172643  21.510942  34.451997  2.506949  2.52591  2.313726  -24.824148  12.815377  -25.798054  -3.376842  7.766633  36.058547  10.089277  3.649912  -0.567059  0.545313  -0.049522  1.459736  1.48695  -0.168203  3.988699  1.48695  -0.168203  3.988699  -19.444716  24.448125  -0.42923  161.490787  60.15986  -158.361866  0.162565  -1.039873  13.709772  96.803043  -1.622028  -11.156454  -20.109833  -0.448581  17.556478  51.943196  13.941937  44.913731  29.65344  -32.494083  -110.723275  68.529583  -2.396648  -21.863138  -7.129661  0.540161  -2.17956  -5.345361  0.430625  -1.628619  
